<svg version="1.1" id="Layer_1" xmlns="http://www.w3.org/2000/svg" xmlns:xlink="http://www.w3.org/1999/xlink" x="0px" y="0px"
	 width="100%" viewBox="0 0 500 500" enable-background="new 0 0 500 500" xml:space="preserve">
<path fill="#B886FA" opacity="1.000000" stroke="none" 
	d="
M281.000000,501.000000 
	C187.333359,501.000000 94.166710,501.000000 1.000050,501.000000 
	C1.000033,334.333405 1.000033,167.666794 1.000017,1.000139 
	C167.666565,1.000093 334.333130,1.000093 500.999756,1.000046 
	C500.999847,167.666519 500.999847,334.333038 500.999939,500.999786 
	C427.833344,501.000000 354.666656,501.000000 281.000000,501.000000 
M448.896912,281.918671 
	C448.741180,281.788208 448.585480,281.657715 448.557556,280.819336 
	C450.046783,277.477722 451.736450,274.209564 452.992035,270.782318 
	C460.123169,251.316864 459.062317,231.169464 457.726013,211.020874 
	C457.652863,209.917999 457.296173,208.333527 456.527039,207.862808 
	C452.976837,205.690170 454.095093,202.383072 454.085114,199.336151 
	C454.046509,187.535080 455.029175,175.622223 453.729004,163.963165 
	C452.336243,151.473709 449.192474,139.122375 446.046082,126.908287 
	C444.317719,120.198814 439.967346,118.349228 433.698334,121.215576 
	C427.692169,123.961731 421.755920,127.239998 416.554749,131.272217 
	C409.910828,136.422897 404.034882,142.564163 397.455902,148.620972 
	C395.273468,141.293793 393.319702,134.290436 391.086121,127.377495 
	C389.332123,121.948891 386.957611,121.072350 382.175110,123.941963 
	C376.176636,127.541183 370.187500,131.171280 364.363068,135.041962 
	C353.178375,142.474854 342.926147,150.881668 336.238312,162.907745 
	C333.097809,168.555008 332.019989,168.706451 327.523926,164.046066 
	C318.679779,154.878677 309.045959,146.746902 297.841614,140.582443 
	C291.350525,137.011169 288.522156,138.321167 289.163788,145.601044 
	C289.976715,154.824234 291.730865,163.984970 293.466034,173.098953 
	C294.557190,178.830246 294.102448,179.242416 288.219543,178.810287 
	C281.801056,178.338867 275.304047,178.410461 268.874939,178.800385 
	C264.761963,179.049835 262.973053,181.924759 264.440674,185.900574 
	C266.092102,190.374268 264.715851,193.405533 261.202911,196.338120 
	C255.441467,201.147659 253.915833,207.473938 256.787903,214.352890 
	C258.693726,218.917587 258.388794,223.033524 256.410217,227.320023 
	C254.806213,230.795029 253.661407,234.537094 251.668610,237.762619 
	C249.510620,241.255463 246.956955,244.697052 243.871674,247.338486 
	C242.430374,248.572464 238.841644,248.748840 237.122818,247.792725 
	C235.462692,246.869278 234.523178,243.959518 234.084091,241.759277 
	C233.756714,240.118790 234.636215,238.191177 235.140549,236.438126 
	C240.664307,217.237778 246.173889,198.033157 251.776505,178.855759 
	C263.917297,137.298584 276.126251,95.761299 288.220490,54.190617 
	C288.683502,52.599140 288.245544,50.745548 288.227417,49.014099 
	C286.539032,49.176292 284.686493,48.942772 283.188538,49.564087 
	C272.452942,54.016975 261.266846,56.332874 249.712326,57.066509 
	C246.478531,57.271832 242.307358,56.413483 241.776108,61.045902 
	C241.195526,66.108513 245.796219,64.860367 248.551315,65.454391 
	C255.918793,67.042862 257.657990,68.840187 257.016327,76.344696 
	C256.665985,80.441963 255.539536,84.522484 254.361755,88.491455 
	C245.550720,118.183907 236.712418,147.868729 227.729294,177.509460 
	C223.102554,192.775772 219.875458,208.683014 210.437225,222.004074 
	C203.440491,231.879196 196.101501,241.562088 188.237503,250.750824 
	C184.438599,255.189682 181.515381,254.157471 180.830215,248.215469 
	C179.980286,240.844604 179.045013,232.989105 180.674896,225.926392 
	C184.442261,209.601364 189.418015,193.527115 194.525970,177.550110 
	C197.572556,168.020859 196.703171,163.878159 188.304352,158.699524 
	C181.951950,154.782700 178.451965,155.669556 176.016617,162.676086 
	C172.411880,173.046951 168.132156,183.409943 166.391464,194.141525 
	C164.447342,206.127441 157.887878,213.124268 147.836121,218.084656 
	C144.557343,219.702698 141.268936,221.342270 137.862244,222.653137 
	C121.528831,228.938156 104.279221,228.971817 87.167458,229.842300 
	C83.233070,230.042450 79.279816,229.871811 74.388954,229.871811 
	C76.759560,223.055267 78.935883,217.008362 80.970390,210.914124 
	C98.297096,159.013123 110.353867,105.748238 121.902527,52.355762 
	C123.834679,43.422951 123.332397,42.490982 115.332397,38.122086 
	C113.307076,37.016029 111.063202,36.231972 108.836296,35.589024 
	C103.755989,34.122238 101.893723,35.277447 100.819588,40.571423 
	C98.171410,53.623272 95.758133,66.724464 92.974716,79.746895 
	C82.422066,129.118240 70.385559,178.084030 53.211811,225.664169 
	C51.473942,230.478973 49.190186,233.301178 44.088089,234.794601 
	C31.446423,238.494919 22.357552,246.789795 16.474804,258.525513 
	C11.825822,267.799957 16.972065,277.965332 27.075537,280.051971 
	C36.413490,281.980560 43.695305,278.047729 50.144226,272.072937 
	C59.931580,263.005188 65.285156,251.067673 70.455452,239.133820 
	C71.877617,235.851212 73.600372,234.654663 77.096512,234.654572 
	C84.417755,234.654358 91.738480,234.200424 99.060310,233.960251 
	C121.419128,233.226883 142.747772,229.134766 160.988647,214.989685 
	C160.988647,214.989685 160.960175,214.960083 161.224197,215.841080 
	C160.960831,218.822922 160.448563,221.807617 160.482742,224.786041 
	C160.570312,232.415970 160.086731,240.177292 161.316925,247.641251 
	C163.382050,260.170959 173.785339,264.713806 185.004166,258.704132 
	C187.043076,257.611938 189.195709,256.387817 190.695160,254.693146 
	C196.740646,247.860474 202.567902,240.833908 208.431915,233.842178 
	C209.475082,232.598419 210.309891,231.179886 211.009048,230.175217 
	C211.009048,235.624451 210.820892,240.921967 211.054169,246.200851 
	C211.385300,253.694107 215.802368,258.589142 223.120285,260.056458 
	C236.495728,262.738342 248.778885,257.320007 255.680725,245.134964 
	C258.451599,240.243073 260.019104,234.680710 262.630005,229.682434 
	C263.921967,227.209076 265.967712,224.703339 268.320709,223.297028 
	C273.583710,220.151505 276.078308,212.869781 272.641510,207.954422 
	C271.735840,206.659073 269.752411,205.657013 268.158875,205.483276 
	C267.267365,205.386063 266.040802,207.174057 265.191803,208.285660 
	C264.609406,209.048203 264.618286,210.287537 263.995941,210.987564 
	C263.318207,211.749893 262.061035,212.722198 261.340485,212.531265 
	C260.507111,212.310425 259.420776,210.921783 259.419434,210.038681 
	C259.412262,205.371964 261.471161,201.680695 265.550537,199.315964 
	C269.304626,197.139786 272.917297,197.431854 276.062683,200.542740 
	C277.953918,202.413254 280.164154,204.184433 281.402740,206.452591 
	C286.485535,215.760498 291.857819,224.983292 296.002716,234.714813 
	C304.020416,253.539154 310.286224,273.161469 319.093048,291.585510 
	C331.572937,317.693573 358.187500,330.585266 386.611023,326.285339 
	C395.875122,324.883850 396.667908,325.208313 400.150879,333.739990 
	C401.520203,337.094269 402.731842,340.648315 403.180359,344.216370 
	C404.279541,352.960815 405.147461,361.751923 405.645020,370.550476 
	C406.502136,385.705994 406.926758,400.882904 401.900818,415.561005 
	C397.849121,427.393921 382.422791,436.325623 370.195435,434.002167 
	C364.204590,432.863739 361.843719,428.475403 364.734741,423.395508 
	C368.013214,417.634735 373.489716,415.423950 379.789520,415.159851 
	C380.954041,415.111023 382.175751,416.425629 384.505981,417.761566 
	C381.392578,418.672516 379.790924,419.141174 377.692047,419.755280 
	C378.682983,420.798798 379.539795,422.157928 379.927704,422.035187 
	C382.372009,421.261658 385.688660,420.810242 386.878357,419.026245 
	C389.174713,415.582581 387.204773,412.340576 383.933258,410.174408 
	C377.736694,406.071472 367.613556,407.879242 360.987640,414.193420 
	C354.475739,420.398987 353.158142,428.305176 357.003174,435.475769 
	C360.140045,441.325714 363.072968,447.312256 365.663361,453.421814 
	C369.982727,463.609070 377.736725,466.888611 387.860352,462.492096 
	C395.631500,459.117279 400.564362,453.080139 404.169891,445.655792 
	C412.739960,428.008606 414.802124,409.012115 415.698761,389.813660 
	C416.637634,369.710144 413.964203,349.938812 409.517548,330.375458 
	C407.583649,321.867188 408.308655,320.039673 415.417999,315.476501 
	C417.235748,314.309845 419.006165,313.042572 420.668182,311.664551 
	C430.670197,303.371552 440.458221,294.806000 450.714478,286.842529 
	C453.942993,284.335724 458.262115,282.788177 462.321289,281.919495 
	C466.525269,281.019836 469.959656,283.269775 470.662048,287.828918 
	C471.272034,291.788147 469.782043,295.186401 465.795685,296.709778 
	C461.581329,298.320251 458.729095,296.686768 457.004761,292.305115 
	C457.402313,295.070160 458.026367,298.225189 459.750916,299.034149 
	C461.915833,300.049744 465.331848,299.920105 467.588287,298.906036 
	C472.465820,296.713928 474.471344,290.288147 472.646576,285.107697 
	C470.939240,280.260376 465.473419,276.686951 460.362732,277.898407 
	C456.549866,278.802277 453.001892,280.823669 448.896912,281.918671 
M191.746323,146.833130 
	C198.926407,151.299332 203.907501,151.281906 207.080902,146.477448 
	C209.548599,142.741379 211.886642,138.876862 213.845932,134.856750 
	C217.897552,126.543556 214.850189,118.830322 206.362335,115.180420 
	C201.769547,113.205437 197.630615,114.492844 195.427826,118.924934 
	C192.989548,123.830826 190.879654,128.898849 188.560669,133.865417 
	C186.297699,138.712051 187.062881,142.881912 191.746323,146.833130 
z"/>
<path fill="#FDFCFF" opacity="1.000000" stroke="none" 
	d="
M161.014557,215.020752 
	C142.747772,229.134766 121.419128,233.226883 99.060310,233.960251 
	C91.738480,234.200424 84.417755,234.654358 77.096512,234.654572 
	C73.600372,234.654663 71.877617,235.851212 70.455452,239.133820 
	C65.285156,251.067673 59.931580,263.005188 50.144226,272.072937 
	C43.695305,278.047729 36.413490,281.980560 27.075537,280.051971 
	C16.972065,277.965332 11.825822,267.799957 16.474804,258.525513 
	C22.357552,246.789795 31.446423,238.494919 44.088089,234.794601 
	C49.190186,233.301178 51.473942,230.478973 53.211811,225.664169 
	C70.385559,178.084030 82.422066,129.118240 92.974716,79.746895 
	C95.758133,66.724464 98.171410,53.623272 100.819588,40.571423 
	C101.893723,35.277447 103.755989,34.122238 108.836296,35.589024 
	C111.063202,36.231972 113.307076,37.016029 115.332397,38.122086 
	C123.332397,42.490982 123.834679,43.422951 121.902527,52.355762 
	C110.353867,105.748238 98.297096,159.013123 80.970390,210.914124 
	C78.935883,217.008362 76.759560,223.055267 74.388954,229.871811 
	C79.279816,229.871811 83.233070,230.042450 87.167458,229.842300 
	C104.279221,228.971817 121.528831,228.938156 137.862244,222.653137 
	C141.268936,221.342270 144.557343,219.702698 147.836121,218.084656 
	C157.887878,213.124268 164.447342,206.127441 166.391464,194.141525 
	C168.132156,183.409943 172.411880,173.046951 176.016617,162.676086 
	C178.451965,155.669556 181.951950,154.782700 188.304352,158.699524 
	C196.703171,163.878159 197.572556,168.020859 194.525970,177.550110 
	C189.418015,193.527115 184.442261,209.601364 180.674896,225.926392 
	C179.045013,232.989105 179.980286,240.844604 180.830215,248.215469 
	C181.515381,254.157471 184.438599,255.189682 188.237503,250.750824 
	C196.101501,241.562088 203.440491,231.879196 210.437225,222.004074 
	C219.875458,208.683014 223.102554,192.775772 227.729294,177.509460 
	C236.712418,147.868729 245.550720,118.183907 254.361755,88.491455 
	C255.539536,84.522484 256.665985,80.441963 257.016327,76.344696 
	C257.657990,68.840187 255.918793,67.042862 248.551315,65.454391 
	C245.796219,64.860367 241.195526,66.108513 241.776108,61.045902 
	C242.307358,56.413483 246.478531,57.271832 249.712326,57.066509 
	C261.266846,56.332874 272.452942,54.016975 283.188538,49.564087 
	C284.686493,48.942772 286.539032,49.176292 288.227417,49.014099 
	C288.245544,50.745548 288.683502,52.599140 288.220490,54.190617 
	C276.126251,95.761299 263.917297,137.298584 251.776505,178.855759 
	C246.173889,198.033157 240.664307,217.237778 235.140549,236.438126 
	C234.636215,238.191177 233.756714,240.118790 234.084091,241.759277 
	C234.523178,243.959518 235.462692,246.869278 237.122818,247.792725 
	C238.841644,248.748840 242.430374,248.572464 243.871674,247.338486 
	C246.956955,244.697052 249.510620,241.255463 251.668610,237.762619 
	C253.661407,234.537094 254.806213,230.795029 256.410217,227.320023 
	C258.388794,223.033524 258.693726,218.917587 256.787903,214.352890 
	C253.915833,207.473938 255.441467,201.147659 261.202911,196.338120 
	C264.715851,193.405533 266.092102,190.374268 264.440674,185.900574 
	C262.973053,181.924759 264.761963,179.049835 268.874939,178.800385 
	C275.304047,178.410461 281.801056,178.338867 288.219543,178.810287 
	C294.102448,179.242416 294.557190,178.830246 293.466034,173.098953 
	C291.730865,163.984970 289.976715,154.824234 289.163788,145.601044 
	C288.522156,138.321167 291.350525,137.011169 297.841614,140.582443 
	C309.045959,146.746902 318.679779,154.878677 327.523926,164.046066 
	C332.019989,168.706451 333.097809,168.555008 336.238312,162.907745 
	C342.926147,150.881668 353.178375,142.474854 364.363068,135.041962 
	C370.187500,131.171280 376.176636,127.541183 382.175110,123.941963 
	C386.957611,121.072350 389.332123,121.948891 391.086121,127.377495 
	C393.319702,134.290436 395.273468,141.293793 397.455902,148.620972 
	C404.034882,142.564163 409.910828,136.422897 416.554749,131.272217 
	C421.755920,127.239998 427.692169,123.961731 433.698334,121.215576 
	C439.967346,118.349228 444.317719,120.198814 446.046082,126.908287 
	C449.192474,139.122375 452.336243,151.473709 453.729004,163.963165 
	C455.029175,175.622223 454.046509,187.535080 454.085114,199.336151 
	C454.095093,202.383072 452.976837,205.690170 456.527039,207.862808 
	C457.296173,208.333527 457.652863,209.917999 457.726013,211.020874 
	C459.062317,231.169464 460.123169,251.316864 452.992035,270.782318 
	C451.736450,274.209564 450.046783,277.477722 448.314240,281.324432 
	C447.827454,282.064423 447.699219,282.350983 447.555206,282.807159 
	C447.639526,282.977325 447.854828,283.029510 448.311157,283.016724 
	C448.868530,282.821747 449.129791,282.620300 449.335938,282.347351 
	C453.001892,280.823669 456.549866,278.802277 460.362732,277.898407 
	C465.473419,276.686951 470.939240,280.260376 472.646576,285.107697 
	C474.471344,290.288147 472.465820,296.713928 467.588287,298.906036 
	C465.331848,299.920105 461.915833,300.049744 459.750916,299.034149 
	C458.026367,298.225189 457.402313,295.070160 457.004761,292.305115 
	C458.729095,296.686768 461.581329,298.320251 465.795685,296.709778 
	C469.782043,295.186401 471.272034,291.788147 470.662048,287.828918 
	C469.959656,283.269775 466.525269,281.019836 462.321289,281.919495 
	C458.262115,282.788177 453.942993,284.335724 450.714478,286.842529 
	C440.458221,294.806000 430.670197,303.371552 420.668182,311.664551 
	C419.006165,313.042572 417.235748,314.309845 415.417999,315.476501 
	C408.308655,320.039673 407.583649,321.867188 409.517548,330.375458 
	C413.964203,349.938812 416.637634,369.710144 415.698761,389.813660 
	C414.802124,409.012115 412.739960,428.008606 404.169891,445.655792 
	C400.564362,453.080139 395.631500,459.117279 387.860352,462.492096 
	C377.736725,466.888611 369.982727,463.609070 365.663361,453.421814 
	C363.072968,447.312256 360.140045,441.325714 357.003174,435.475769 
	C353.158142,428.305176 354.475739,420.398987 360.987640,414.193420 
	C367.613556,407.879242 377.736694,406.071472 383.933258,410.174408 
	C387.204773,412.340576 389.174713,415.582581 386.878357,419.026245 
	C385.688660,420.810242 382.372009,421.261658 379.927704,422.035187 
	C379.539795,422.157928 378.682983,420.798798 377.692047,419.755280 
	C379.790924,419.141174 381.392578,418.672516 384.505981,417.761566 
	C382.175751,416.425629 380.954041,415.111023 379.789520,415.159851 
	C373.489716,415.423950 368.013214,417.634735 364.734741,423.395508 
	C361.843719,428.475403 364.204590,432.863739 370.195435,434.002167 
	C382.422791,436.325623 397.849121,427.393921 401.900818,415.561005 
	C406.926758,400.882904 406.502136,385.705994 405.645020,370.550476 
	C405.147461,361.751923 404.279541,352.960815 403.180359,344.216370 
	C402.731842,340.648315 401.520203,337.094269 400.150879,333.739990 
	C396.667908,325.208313 395.875122,324.883850 386.611023,326.285339 
	C358.187500,330.585266 331.572937,317.693573 319.093048,291.585510 
	C310.286224,273.161469 304.020416,253.539154 296.002716,234.714813 
	C291.857819,224.983292 286.485535,215.760498 281.402740,206.452591 
	C280.164154,204.184433 277.953918,202.413254 276.062683,200.542740 
	C272.917297,197.431854 269.304626,197.139786 265.550537,199.315964 
	C261.471161,201.680695 259.412262,205.371964 259.419434,210.038681 
	C259.420776,210.921783 260.507111,212.310425 261.340485,212.531265 
	C262.061035,212.722198 263.318207,211.749893 263.995941,210.987564 
	C264.618286,210.287537 264.609406,209.048203 265.191803,208.285660 
	C266.040802,207.174057 267.267365,205.386063 268.158875,205.483276 
	C269.752411,205.657013 271.735840,206.659073 272.641510,207.954422 
	C276.078308,212.869781 273.583710,220.151505 268.320709,223.297028 
	C265.967712,224.703339 263.921967,227.209076 262.630005,229.682434 
	C260.019104,234.680710 258.451599,240.243073 255.680725,245.134964 
	C248.778885,257.320007 236.495728,262.738342 223.120285,260.056458 
	C215.802368,258.589142 211.385300,253.694107 211.054169,246.200851 
	C210.820892,240.921967 211.009048,235.624451 211.009048,230.175217 
	C210.309891,231.179886 209.475082,232.598419 208.431915,233.842178 
	C202.567902,240.833908 196.740646,247.860474 190.695160,254.693146 
	C189.195709,256.387817 187.043076,257.611938 185.004166,258.704132 
	C173.785339,264.713806 163.382050,260.170959 161.316925,247.641251 
	C160.086731,240.177292 160.570312,232.415970 160.482742,224.786041 
	C160.448563,221.807617 160.960831,218.822922 161.236298,215.425995 
	C161.170441,215.014175 161.092499,215.017471 161.014557,215.020752 
M375.652832,180.801575 
	C380.079376,178.504730 384.340179,175.762939 388.978729,174.035477 
	C393.670990,172.288025 395.201172,169.425674 395.357727,164.643494 
	C395.742310,152.896469 392.461548,141.924438 389.032288,130.946014 
	C387.595306,126.345703 385.858093,125.511467 381.735321,128.231873 
	C371.874481,134.738602 361.778198,141.008347 352.618744,148.414825 
	C346.782196,153.134384 342.136414,159.478928 337.568085,165.554581 
	C335.031219,168.928467 334.765320,173.031372 340.553925,176.277176 
	C341.249817,171.569183 341.767059,167.400467 342.545288,163.281036 
	C342.737335,162.264557 343.778259,161.408417 344.428986,160.478546 
	C345.201782,161.445480 346.398438,162.325256 346.620483,163.405426 
	C346.817200,164.362167 345.794220,165.511490 345.545441,166.628326 
	C344.611420,170.821335 343.368134,175.009659 343.094269,179.254791 
	C342.980225,181.022354 345.009155,182.928177 346.063629,184.771149 
	C347.025940,183.231186 348.018311,181.708984 348.941498,180.145905 
	C349.745575,178.784409 350.471588,177.376785 351.232086,175.989548 
	C352.550964,177.092178 354.092987,178.016769 355.143433,179.333542 
	C357.525024,182.318893 359.664459,185.497391 361.902374,188.597366 
	C362.652710,188.287460 363.403046,187.977554 364.153381,187.667648 
	C362.809113,181.487000 361.464813,175.306335 360.201721,169.498978 
	C363.805389,171.327118 365.490662,169.340851 364.959808,164.208633 
	C365.456177,164.462189 365.952576,164.715744 366.448975,164.969299 
	C366.448975,172.031494 366.448975,179.093689 366.448975,186.155884 
	C369.865540,182.624908 372.129364,178.979584 374.526184,175.423920 
	C376.979492,171.784378 379.563141,168.232666 382.231903,164.440521 
	C385.607788,167.405960 384.248077,169.078049 382.142059,171.352692 
	C379.440948,174.270096 377.383240,177.783264 374.816345,181.035675 
	C374.816345,181.035675 374.735413,181.313416 374.735413,181.313416 
	C374.735413,181.313416 374.980133,180.964844 375.652832,180.801575 
M294.560181,165.802917 
	C299.703674,179.430908 304.847168,193.058899 309.990662,206.686874 
	C306.534668,202.490341 303.878357,197.779984 301.032013,193.187424 
	C299.650757,190.958786 298.335999,188.292801 296.261688,186.960861 
	C288.736633,182.128937 280.302643,180.369583 271.425873,181.578339 
	C266.663422,182.226852 265.854584,184.526382 268.866669,188.324158 
	C269.845245,189.557968 271.393646,190.367462 272.748840,191.269745 
	C276.719238,193.913239 281.107239,196.072784 284.639984,199.202576 
	C293.820496,207.335938 299.469116,217.963287 304.080017,229.120605 
	C311.645325,247.426773 318.305634,266.143585 326.646149,284.083557 
	C337.344269,307.094635 358.822357,318.752472 383.978424,316.803009 
	C385.279114,316.702179 386.512695,315.735229 387.777557,315.171539 
	C387.232239,314.035248 386.964996,312.586426 386.096344,311.813538 
	C380.628113,306.948364 374.898071,302.373596 369.499908,297.434601 
	C362.161987,290.720795 354.520294,284.226562 347.982635,276.782959 
	C341.742889,269.678497 340.013123,260.439209 341.802094,253.288437 
	C350.577576,279.712006 373.446838,291.645874 394.973114,306.575897 
	C395.105408,303.727905 395.268127,301.967987 395.256195,300.209259 
	C395.145172,283.881042 394.908508,267.553101 394.896271,251.224960 
	C394.881500,231.468414 397.362488,212.025635 403.173431,193.103821 
	C405.220703,186.437393 408.399963,180.306183 414.172241,175.811707 
	C413.841064,177.747421 413.085205,179.477051 412.183289,181.126816 
	C407.148193,190.336914 404.506470,200.253265 403.569305,210.641052 
	C403.447174,211.995102 404.169678,213.425339 404.696594,215.644272 
	C405.929016,213.766296 406.506744,212.885971 407.227325,211.787933 
	C413.506470,217.035843 404.067261,219.515640 405.659027,224.218292 
	C407.073029,223.938461 408.501495,223.794739 409.840118,223.368729 
	C420.079010,220.110397 420.073578,220.093307 420.598358,231.160904 
	C422.977875,227.433441 425.357391,223.705978 427.878082,219.757355 
	C428.509552,222.024078 428.824127,224.799622 429.375977,224.847610 
	C431.689117,225.048843 434.537354,225.155182 436.350403,223.990219 
	C443.825806,219.186981 448.359406,212.281631 449.968933,203.378571 
	C454.454865,178.565033 451.722656,154.291626 444.782379,130.321152 
	C442.720001,123.197937 439.625885,121.709114 432.861145,124.442543 
	C422.165253,128.764435 413.023438,135.339569 405.615265,144.182968 
	C400.916840,149.791611 397.592316,156.035355 398.000092,163.714005 
	C398.288239,169.141083 399.792572,170.469254 405.134399,170.004120 
	C407.164001,169.827393 409.221863,169.975388 411.266876,169.975388 
	C411.344696,170.444672 411.422546,170.913956 411.500397,171.383240 
	C408.224609,172.219482 404.946625,173.047150 401.673462,173.893402 
	C380.907990,179.261917 364.059784,189.139267 357.767792,211.500488 
	C357.289459,213.200470 355.170105,214.438721 353.813538,215.891586 
	C352.832184,214.069519 351.146881,212.304596 350.993469,210.415314 
	C350.389160,202.972076 348.571014,196.145981 344.385559,189.772720 
	C332.105774,171.074127 316.041473,156.273849 297.791779,143.679413 
	C296.370422,142.698532 293.628143,141.989487 292.477753,142.711746 
	C291.283844,143.461349 290.618317,146.205704 290.875366,147.902985 
	C291.745880,153.651474 293.127319,159.322617 294.560181,165.802917 
M441.957306,285.400543 
	C445.029724,279.175140 448.741241,273.176025 451.042114,266.677399 
	C455.898956,252.959763 455.268555,238.502396 455.392212,224.207977 
	C455.424072,220.522812 455.087738,216.834457 454.916809,213.065704 
	C453.768372,213.255554 453.374512,213.208298 453.143677,213.380127 
	C452.481659,213.872879 451.840942,214.411453 451.270386,215.007263 
	C439.429382,227.372009 426.148102,237.762680 410.808533,245.557648 
	C403.899567,249.068481 400.009308,255.038101 400.782745,263.087250 
	C402.087006,276.660950 403.637421,290.211731 405.180817,303.761169 
	C405.578217,307.249664 407.260193,308.879822 410.988617,307.133301 
	C422.370636,301.801575 433.274445,295.810760 441.957306,285.400543 
M40.381332,253.825470 
	C42.908653,249.133957 45.435974,244.442444 48.302975,239.120392 
	C36.068417,240.390198 21.600517,253.176666 19.466373,263.800934 
	C19.173542,265.258698 19.498503,267.956818 20.281286,268.280212 
	C21.872995,268.937805 24.641705,269.132599 25.748316,268.167908 
	C30.712097,263.840637 35.262638,259.039337 40.381332,253.825470 
M403.070099,245.835236 
	C412.239166,242.053909 417.708069,233.764084 416.376434,225.066971 
	C411.186066,225.068542 406.513306,226.526031 403.483612,230.912964 
	C400.333099,235.474884 399.601807,240.592056 403.070099,245.835236 
M354.474457,184.152161 
	C353.293427,182.736343 351.926361,181.424698 350.998047,184.176773 
	C350.327148,186.165833 349.606628,188.476166 349.999084,190.423370 
	C351.244507,196.602768 353.001221,202.679123 354.848602,209.926315 
	C356.044525,206.834198 356.395660,204.557495 357.630920,202.967850 
	C363.191193,195.812393 360.801453,190.036041 354.474457,184.152161 
z"/>
<path fill="#FEFDFF" opacity="1.000000" stroke="none" 
	d="
M191.442535,146.615448 
	C187.062881,142.881912 186.297699,138.712051 188.560669,133.865417 
	C190.879654,128.898849 192.989548,123.830826 195.427826,118.924934 
	C197.630615,114.492844 201.769547,113.205437 206.362335,115.180420 
	C214.850189,118.830322 217.897552,126.543556 213.845932,134.856750 
	C211.886642,138.876862 209.548599,142.741379 207.080902,146.477448 
	C203.907501,151.281906 198.926407,151.299332 191.442535,146.615448 
z"/>
<path fill="#B987FA" opacity="1.000000" stroke="none" 
	d="
M294.436859,165.413116 
	C293.127319,159.322617 291.745880,153.651474 290.875366,147.902985 
	C290.618317,146.205704 291.283844,143.461349 292.477753,142.711746 
	C293.628143,141.989487 296.370422,142.698532 297.791779,143.679413 
	C316.041473,156.273849 332.105774,171.074127 344.385559,189.772720 
	C348.571014,196.145981 350.389160,202.972076 350.993469,210.415314 
	C351.146881,212.304596 352.832184,214.069519 353.813538,215.891602 
	C355.170105,214.438721 357.289459,213.200470 357.767792,211.500488 
	C364.059784,189.139267 380.907990,179.261917 401.673462,173.893402 
	C404.946625,173.047150 408.224609,172.219482 411.500397,171.383240 
	C411.422546,170.913956 411.344696,170.444672 411.266876,169.975388 
	C409.221863,169.975388 407.164001,169.827393 405.134399,170.004120 
	C399.792572,170.469254 398.288239,169.141083 398.000092,163.714005 
	C397.592316,156.035355 400.916840,149.791611 405.615265,144.182968 
	C413.023438,135.339569 422.165253,128.764435 432.861145,124.442543 
	C439.625885,121.709114 442.720001,123.197937 444.782379,130.321152 
	C451.722656,154.291626 454.454865,178.565033 449.968933,203.378571 
	C448.359406,212.281631 443.825806,219.186981 436.350403,223.990219 
	C434.537354,225.155182 431.689117,225.048843 429.375977,224.847610 
	C428.824127,224.799622 428.509552,222.024078 427.878082,219.757355 
	C425.357391,223.705978 422.977875,227.433441 420.598358,231.160904 
	C420.073578,220.093307 420.079010,220.110397 409.840118,223.368729 
	C408.501495,223.794739 407.073029,223.938461 405.659027,224.218292 
	C404.067261,219.515640 413.506470,217.035843 407.227325,211.787933 
	C406.506744,212.885971 405.929016,213.766296 404.696594,215.644272 
	C404.169678,213.425339 403.447174,211.995102 403.569305,210.641052 
	C404.506470,200.253265 407.148193,190.336914 412.183289,181.126816 
	C413.085205,179.477051 413.841064,177.747421 414.172241,175.811707 
	C408.399963,180.306183 405.220703,186.437393 403.173431,193.103821 
	C397.362488,212.025635 394.881500,231.468414 394.896271,251.224960 
	C394.908508,267.553101 395.145172,283.881042 395.256195,300.209259 
	C395.268127,301.967987 395.105408,303.727905 394.973114,306.575897 
	C373.446838,291.645874 350.577576,279.712006 341.802094,253.288437 
	C340.013123,260.439209 341.742889,269.678497 347.982635,276.782959 
	C354.520294,284.226562 362.161987,290.720795 369.499908,297.434601 
	C374.898071,302.373596 380.628113,306.948364 386.096344,311.813538 
	C386.964996,312.586426 387.232239,314.035248 387.777557,315.171539 
	C386.512695,315.735229 385.279114,316.702179 383.978424,316.803009 
	C358.822357,318.752472 337.344269,307.094635 326.646149,284.083557 
	C318.305634,266.143585 311.645325,247.426773 304.080017,229.120605 
	C299.469116,217.963287 293.820496,207.335938 284.639984,199.202576 
	C281.107239,196.072784 276.719238,193.913239 272.748840,191.269745 
	C271.393646,190.367462 269.845245,189.557968 268.866669,188.324158 
	C265.854584,184.526382 266.663422,182.226852 271.425873,181.578339 
	C280.302643,180.369583 288.736633,182.128937 296.261688,186.960861 
	C298.335999,188.292801 299.650757,190.958786 301.032013,193.187424 
	C303.878357,197.779984 306.534668,202.490341 309.990662,206.686874 
	C304.847168,193.058899 299.703674,179.430908 294.436859,165.413116 
M311.660706,208.442963 
	C311.660706,208.442963 311.466156,208.316437 311.466156,208.316437 
	C311.466156,208.316437 311.484009,208.570312 311.660706,208.442963 
z"/>
<path fill="#B887FA" opacity="1.000000" stroke="none" 
	d="
M441.734863,285.680054 
	C433.274445,295.810760 422.370636,301.801575 410.988617,307.133301 
	C407.260193,308.879822 405.578217,307.249664 405.180817,303.761169 
	C403.637421,290.211731 402.087006,276.660950 400.782745,263.087250 
	C400.009308,255.038101 403.899567,249.068481 410.808533,245.557648 
	C426.148102,237.762680 439.429382,227.372009 451.270386,215.007263 
	C451.840942,214.411453 452.481659,213.872879 453.143677,213.380127 
	C453.374512,213.208298 453.768372,213.255554 454.916809,213.065704 
	C455.087738,216.834457 455.424072,220.522812 455.392212,224.207977 
	C455.268555,238.502396 455.898956,252.959763 451.042114,266.677399 
	C448.741241,273.176025 445.029724,279.175140 441.734863,285.680054 
z"/>
<path fill="#B988FA" opacity="1.000000" stroke="none" 
	d="
M375.048309,181.039749 
	C377.383240,177.783264 379.440948,174.270096 382.142059,171.352692 
	C384.248077,169.078049 385.607788,167.405960 382.231903,164.440521 
	C379.563141,168.232666 376.979492,171.784378 374.526184,175.423920 
	C372.129364,178.979584 369.865540,182.624908 366.448975,186.155884 
	C366.448975,179.093689 366.448975,172.031494 366.448975,164.969299 
	C365.952576,164.715744 365.456177,164.462189 364.959808,164.208633 
	C365.490662,169.340851 363.805389,171.327118 360.201721,169.498978 
	C361.464813,175.306335 362.809113,181.487000 364.153381,187.667648 
	C363.403046,187.977554 362.652710,188.287460 361.902374,188.597366 
	C359.664459,185.497391 357.525024,182.318893 355.143433,179.333542 
	C354.092987,178.016769 352.550964,177.092178 351.232086,175.989548 
	C350.471588,177.376785 349.745575,178.784409 348.941498,180.145905 
	C348.018311,181.708984 347.025940,183.231186 346.063629,184.771149 
	C345.009155,182.928177 342.980225,181.022354 343.094269,179.254791 
	C343.368134,175.009659 344.611420,170.821335 345.545441,166.628326 
	C345.794220,165.511490 346.817200,164.362167 346.620483,163.405426 
	C346.398438,162.325256 345.201782,161.445480 344.428986,160.478546 
	C343.778259,161.408417 342.737335,162.264557 342.545288,163.281036 
	C341.767059,167.400467 341.249817,171.569183 340.553925,176.277176 
	C334.765320,173.031372 335.031219,168.928467 337.568085,165.554581 
	C342.136414,159.478928 346.782196,153.134384 352.618744,148.414825 
	C361.778198,141.008347 371.874481,134.738602 381.735321,128.231873 
	C385.858093,125.511467 387.595306,126.345703 389.032288,130.946014 
	C392.461548,141.924438 395.742310,152.896469 395.357727,164.643494 
	C395.201172,169.425674 393.670990,172.288025 388.978729,174.035477 
	C384.340179,175.762939 380.079376,178.504730 375.332336,180.903015 
	C375.011841,181.004456 375.048309,181.039749 375.048309,181.039749 
z"/>
<path fill="#BA8AFA" opacity="1.000000" stroke="none" 
	d="
M40.171814,254.117279 
	C35.262638,259.039337 30.712097,263.840637 25.748316,268.167908 
	C24.641705,269.132599 21.872995,268.937805 20.281286,268.280212 
	C19.498503,267.956818 19.173542,265.258698 19.466373,263.800934 
	C21.600517,253.176666 36.068417,240.390198 48.302975,239.120392 
	C45.435974,244.442444 42.908653,249.133957 40.171814,254.117279 
z"/>
<path fill="#B989FA" opacity="1.000000" stroke="none" 
	d="
M402.675598,245.819275 
	C399.601807,240.592056 400.333099,235.474884 403.483612,230.912964 
	C406.513306,226.526031 411.186066,225.068542 416.376434,225.066971 
	C417.708069,233.764084 412.239166,242.053909 402.675598,245.819275 
z"/>
<path fill="#BB8CFA" opacity="1.000000" stroke="none" 
	d="
M354.701202,184.415802 
	C360.801453,190.036041 363.191193,195.812393 357.630920,202.967850 
	C356.395660,204.557495 356.044525,206.834198 354.848602,209.926315 
	C353.001221,202.679123 351.244507,196.602768 349.999084,190.423370 
	C349.606628,188.476166 350.327148,186.165833 350.998047,184.176773 
	C351.926361,181.424698 353.293427,182.736343 354.701202,184.415802 
z"/>
<path fill="#B988FA" opacity="1.000000" stroke="none" 
	d="
M374.995972,180.984650 
	C374.980133,180.964844 374.735413,181.313416 374.735413,181.313416 
	C374.735413,181.313416 374.816345,181.035675 374.932312,181.037720 
	C375.048309,181.039749 375.011841,181.004456 374.995972,180.984650 
z"/>
<path fill="#B886FA" opacity="1.000000" stroke="none" 
	d="
M161.001602,215.005219 
	C161.092499,215.017471 161.170441,215.014175 161.104279,214.985489 
	C160.960175,214.960083 160.988647,214.989685 161.001602,215.005219 
z"/>
<path fill="#B886FA" opacity="1.000000" stroke="none" 
	d="
M447.686188,282.689178 
	C447.699219,282.350983 447.827454,282.064423 448.250336,281.678375 
	C448.585480,281.657715 448.741180,281.788208 449.116425,282.132996 
	C449.129791,282.620300 448.868530,282.821747 448.215607,282.918152 
	C447.879059,282.884583 447.686188,282.689178 447.686188,282.689178 
z"/>
<path fill="#B886FA" opacity="1.000000" stroke="none" 
	d="
M447.974609,282.983154 
	C447.854828,283.029510 447.639526,282.977325 447.555206,282.807159 
	C447.686188,282.689178 447.879059,282.884583 447.974609,282.983154 
z"/>
<path fill="#FDFCFF" opacity="1.000000" stroke="none" 
	d="
M311.572357,208.506638 
	C311.484009,208.570312 311.466156,208.316437 311.466156,208.316437 
	C311.466156,208.316437 311.660706,208.442963 311.572357,208.506638 
z"/>
</svg>