<?xml version="1.0" standalone="no"?>
<!DOCTYPE svg PUBLIC "-//W3C//DTD SVG 20010904//EN"
 "http://www.w3.org/TR/2001/REC-SVG-20010904/DTD/svg10.dtd">
<svg version="1.0" xmlns="http://www.w3.org/2000/svg"
 width="500.000000pt" height="500.000000pt" viewBox="0 0 500.000000 500.000000"
 preserveAspectRatio="xMidYMid meet">

<g transform="translate(0.000000,500.000000) scale(0.100000,-0.100000)"
fill="#000000" stroke="none">
<path d="M3140 4469 c-87 -35 -141 -103 -191 -244 -17 -49 -40 -108 -51 -130
-50 -100 -228 -383 -315 -500 -119 -162 -192 -285 -249 -421 -98 -234 -143
-428 -152 -654 -6 -166 -12 -165 -32 5 -6 50 -22 144 -35 210 -14 66 -41 200
-60 297 -45 224 -69 304 -97 319 -14 7 -47 9 -89 6 l-67 -6 -28 42 c-101 155
-268 340 -369 412 -67 48 -102 57 -355 100 -85 14 -194 35 -242 46 -100 22
-179 24 -229 7 -93 -31 -179 -122 -179 -189 0 -56 22 -66 160 -72 123 -5 195
-24 300 -77 73 -37 205 -141 231 -183 10 -18 49 -124 85 -237 76 -234 109
-323 165 -433 l40 -79 -71 56 c-157 123 -275 151 -670 163 -236 6 -275 1 -423
-57 -80 -31 -107 -46 -115 -66 -16 -33 -15 -59 1 -73 26 -21 312 -133 490
-191 196 -65 319 -120 393 -177 73 -55 454 -393 454 -402 0 -22 75 -82 115
-92 l45 -11 -35 -40 c-54 -64 -62 -120 -41 -308 20 -192 21 -363 1 -468 -9
-44 -35 -138 -60 -208 -48 -139 -54 -177 -30 -211 24 -34 71 -38 146 -13 94
31 131 59 269 200 132 135 155 151 310 210 47 18 110 50 140 70 70 48 171 153
199 207 38 76 25 159 -38 227 -20 22 -22 26 -6 18 31 -16 61 -53 86 -106 18
-39 36 -57 88 -91 36 -23 86 -49 111 -58 72 -24 226 -55 335 -67 264 -28 316
-48 675 -260 245 -145 316 -201 402 -318 64 -86 96 -112 139 -112 30 0 43 7
64 32 25 30 26 36 20 97 -16 160 -56 254 -197 466 -146 218 -220 298 -362 383
-126 77 -267 124 -481 161 -101 17 -105 19 -54 20 86 2 216 27 315 62 108 38
291 131 610 312 286 162 336 183 480 197 117 11 203 42 224 80 14 26 4 114
-17 150 -20 34 -60 59 -176 108 -209 90 -388 129 -720 158 -172 15 -217 16
-335 6 -330 -30 -547 -109 -725 -264 l-59 -51 87 114 c82 109 213 347 231 422
7 30 29 35 58 14 16 -12 17 -16 5 -35 -7 -12 -10 -24 -7 -27 13 -13 48 7 54
31 9 37 -10 70 -48 83 l-34 11 48 193 c74 292 117 569 134 853 6 89 3 126 -11
182 -21 90 -69 169 -115 194 -37 19 -100 23 -140 7z m128 -55 c29 -20 66 -94
82 -163 35 -147 -31 -654 -137 -1060 l-38 -145 -45 -11 c-116 -30 -198 -101
-349 -304 -163 -220 -318 -487 -466 -805 -65 -138 -76 -180 -52 -189 6 -3 0
-6 -14 -6 -38 -1 -56 23 -31 41 11 7 20 18 22 23 1 6 4 15 5 20 2 6 21 84 44
175 73 299 141 502 183 547 16 17 19 28 12 43 -8 19 -10 19 -32 4 -45 -32
-106 -186 -182 -464 l-38 -135 -8 60 c-11 79 -10 165 4 425 6 118 18 249 27
290 67 307 176 550 355 789 162 216 329 500 380 646 42 121 71 167 127 204 53
35 114 41 151 15z m-2457 -513 c79 -17 202 -39 274 -51 244 -39 259 -46 389
-169 79 -76 164 -178 236 -282 49 -72 50 -73 31 -93 -10 -12 -23 -30 -29 -41
-31 -61 -20 -190 16 -183 14 3 16 13 14 56 -4 56 11 113 33 132 11 9 23 -6 65
-76 62 -105 158 -296 193 -384 35 -89 71 -307 62 -385 -21 -198 -70 -410 -95
-410 -21 0 -105 131 -139 215 -55 141 -83 360 -45 360 8 0 20 -13 25 -30 7
-19 18 -30 30 -30 29 0 25 55 -6 85 -45 46 -98 26 -111 -41 -6 -33 1 -148 12
-204 3 -14 2 -20 -3 -14 -4 5 -50 45 -101 88 -51 43 -114 102 -140 132 -110
128 -200 317 -292 619 -83 272 -108 311 -260 415 -129 88 -241 125 -414 137
-62 5 -111 13 -113 19 -5 16 37 73 79 107 30 24 99 52 139 56 4 1 71 -12 150
-28z m1144 -643 c15 -51 55 -242 55 -263 0 -5 -22 31 -48 80 -27 50 -65 118
-85 153 -20 35 -37 67 -37 73 0 5 22 9 50 9 l49 0 16 -52z m1195 -279 c0 -16
-107 -237 -142 -294 -97 -154 -208 -272 -370 -393 -54 -40 -111 -90 -129 -110
l-31 -37 20 41 c68 136 217 372 331 524 113 150 186 224 252 255 61 28 69 30
69 14z m-2314 -129 c230 -19 338 -56 452 -153 105 -90 299 -331 388 -482 34
-56 124 -303 124 -338 0 -3 -12 -2 -27 5 -16 6 -68 10 -117 10 -104 -1 -130 9
-170 67 -16 23 -58 67 -95 98 -36 32 -124 110 -196 173 -71 63 -153 132 -181
153 -84 61 -205 115 -382 173 -169 55 -492 182 -492 193 1 21 96 65 209 96 58
16 313 19 487 5z m3244 -169 c217 -23 341 -48 494 -101 145 -50 236 -92 263
-122 14 -14 25 -43 29 -70 l6 -46 -41 -22 c-29 -14 -81 -25 -165 -35 -121 -13
-191 -34 -277 -83 -760 -434 -849 -472 -1146 -488 -139 -7 -276 6 -414 41
-161 41 -268 31 -401 -36 -32 -16 -58 -27 -58 -23 0 24 28 45 88 63 80 24 154
70 277 172 185 154 240 187 352 212 51 12 65 12 73 2 7 -8 7 -15 1 -19 -12 -8
-2 -46 12 -46 19 0 47 33 47 54 -1 50 -43 68 -127 56 -116 -16 -205 -67 -393
-224 -101 -85 -251 -178 -265 -165 -11 12 176 263 301 404 305 346 470 435
899 488 82 10 279 5 445 -12z m-2348 -368 c77 -83 105 -159 118 -318 9 -115
23 -145 66 -145 12 0 39 16 59 35 36 34 38 34 62 17 13 -9 35 -41 48 -69 33
-72 70 -118 110 -137 46 -22 78 -20 108 8 l26 24 -6 -29 c-6 -32 10 -59 36
-59 9 0 35 9 56 21 22 11 69 32 105 46 82 32 194 34 290 6 l65 -20 -145 -5
c-112 -5 -163 -11 -227 -30 -90 -27 -133 -51 -133 -73 0 -8 -1 -15 -2 -15 -2
0 -25 7 -52 15 -70 21 -142 18 -205 -9 l-54 -23 -29 26 c-17 14 -46 54 -65 89
-20 35 -47 77 -61 94 -14 16 -26 42 -28 56 -1 15 -29 104 -61 197 -58 167 -94
237 -185 362 -21 29 -38 55 -38 59 0 10 91 -69 142 -123z m1017 -20 c-95 -101
-193 -224 -293 -367 -53 -76 -96 -134 -96 -128 0 20 61 166 92 220 50 88 124
168 235 252 59 44 109 80 111 80 3 0 -19 -26 -49 -57z m-633 -179 c-21 -47
-40 -102 -43 -120 -6 -35 -18 -51 -27 -36 -3 5 6 35 19 68 13 32 31 97 39 144
27 141 28 142 39 83 9 -49 7 -58 -27 -139z m67 -191 c2 -40 1 -73 -2 -73 -4 0
-22 14 -40 31 -31 28 -33 33 -27 75 3 24 16 68 28 97 l23 52 6 -55 c4 -30 9
-88 12 -127z m-245 82 c17 -24 32 -48 32 -53 0 -17 -50 -56 -59 -46 -10 9 -20
144 -11 144 3 -1 20 -21 38 -45z m-159 -214 c66 -34 95 -65 147 -156 62 -112
118 -142 200 -106 69 31 144 28 219 -8 68 -32 97 -60 120 -114 27 -64 0 -121
-107 -223 -86 -83 -108 -97 -231 -144 -144 -56 -205 -99 -332 -235 -118 -127
-197 -178 -278 -179 -36 -1 -42 2 -45 22 -2 12 17 85 43 162 26 77 53 175 60
218 19 102 19 279 0 427 -27 214 -19 271 45 329 50 45 81 46 159 7z m1291
-166 c332 -26 483 -59 656 -145 171 -85 263 -176 413 -404 133 -202 173 -295
187 -429 5 -54 4 -64 -13 -80 -12 -10 -27 -15 -37 -11 -9 3 -48 47 -87 98
-103 135 -200 206 -554 409 -217 125 -310 157 -526 182 -139 16 -291 46 -356
69 -23 8 -67 31 -98 51 -45 28 -61 46 -80 88 -26 58 -65 100 -110 118 l-30 11
31 14 c106 45 285 54 604 29z"/>
</g>
</svg>
